PathFileType	3	(X/Y/Z)	F:\ViconData\AntennenMessung\Messung1\Session1\ID10.trc
DataRate	CameraRate	NumFrames	NumMarkers	Units	OrigDataRate	OrigDataStartFrame	OrigNumFrames
120.0	120.0	6	70	mm	120.0	626	1251	
Frame#	Time	Ashort			Along			Atop			A4			Bshort			Blong			Btop			B4			Cshort			Clong			Ctop			C4			Dshort			Dlong			Dtop			D4			Eshort			Elong			Etop			E4			Fshort			Flong			Ftop			F4			Gshort			Glong			Gtop			G4			Hshort			Hlong			Htop			H4			I1			I2			I3			I4			I5			WandAshort			WandAlong			WandAtop			WandA4			WandA15			WandBshort			WandB4			WandB5			WandBtop			WandBlong			WandCshort			WandClong			WandCtop			WandC4			WandC5			Acenter			Aantenna			Bcenter			Bantenna			Ccenter			Cantenna			Dcenter			Dantenna			Ecenter			Eantenna			Fcenter			Fantenna			Gcenter			Gantenna			Hcenter			Hantenna			Icenter			Iantenna			
		X1	Y1	Z1	X2	Y2	Z2	X3	Y3	Z3	X4	Y4	Z4	X5	Y5	Z5	X6	Y6	Z6	X7	Y7	Z7	X8	Y8	Z8	X9	Y9	Z9	X10	Y10	Z10	X11	Y11	Z11	X12	Y12	Z12	X13	Y13	Z13	X14	Y14	Z14	X15	Y15	Z15	X16	Y16	Z16	X17	Y17	Z17	X18	Y18	Z18	X19	Y19	Z19	X20	Y20	Z20	X21	Y21	Z21	X22	Y22	Z22	X23	Y23	Z23	X24	Y24	Z24	X25	Y25	Z25	X26	Y26	Z26	X27	Y27	Z27	X28	Y28	Z28	X29	Y29	Z29	X30	Y30	Z30	X31	Y31	Z31	X32	Y32	Z32	X33	Y33	Z33	X34	Y34	Z34	X35	Y35	Z35	X36	Y36	Z36	X37	Y37	Z37	X38	Y38	Z38	X39	Y39	Z39	X40	Y40	Z40	X41	Y41	Z41	X42	Y42	Z42	X43	Y43	Z43	X44	Y44	Z44	X45	Y45	Z45	X46	Y46	Z46	X47	Y47	Z47	X48	Y48	Z48	X49	Y49	Z49	X50	Y50	Z50	X51	Y51	Z51	X52	Y52	Z52	X53	Y53	Z53	X54	Y54	Z54	X55	Y55	Z55	X56	Y56	Z56	X57	Y57	Z57	X58	Y58	Z58	X59	Y59	Z59	X60	Y60	Z60	X61	Y61	Z61	X62	Y62	Z62	X63	Y63	Z63	X64	Y64	Z64	X65	Y65	Z65	X66	Y66	Z66	X67	Y67	Z67	X68	Y68	Z68	X69	Y69	Z69	X70	Y70	Z70	
626	5.2083333	-1038.2903	214.65317	-1644.1683	-1109.3065	203.96298	-1599.3578	-1063.9065	172.64992	-1625.3224	-1054.1875	262.23383	-1634.949	-1352.8505	235.36938	1003.7454	-1281.4	227.18925	1052.4613	-1322.8298	194.10172	1020.86	-1284.6277	287.97775	1052.7527	814.03333	187.6098	1209.6384	892.57635	179.36905	1178.6461	844.56604	145.48062	1198.3325	860.69012	292.66309	1167.5721	1115.7375	209.79659	-1401.7137	1056.1301	194.13463	-1460.2609	1095.0343	162.26512	-1423.8801	1069.8428	238.67358	-1425.8428	-1204.5077	1685.9581	-1563.2487	-1129.1528	1688.2623	-1606.0566	-1173.1331	1724.4384	-1581.9714	-1134.0267	1581.0179	-1603.8438	-1239.7654	1699.3611	1119.4946	-1309.3369	1698.8037	1071.8944	-1270.5364	1736.4781	1096.9139	-1245.5966	1592.9772	1110.7542	988.83954	1664.244	1162.2643	957.10852	1700.6566	1183.8337	922.76495	1662.0707	1214.9922	939.73901	1659.3865	1159.9695	999.0799	1668.5234	-1579.4097	1058.8516	1670.1608	-1518.6432	1024.9922	1708.0364	-1551.1246	1059.2456	1672.1516	-1585.4554	31.510971	196.37192	-944.34833	115.5158	203.95755	-932.29242	72.741905	161.7039	-940.23358	72.644165	200.61107	-971.18811	61.678558	198.71588	-891.9848																																														-1069.1394	210.00938	-1624.7028	-1074.5485	248.62714	-1624.0625	-1321.4465	231.77405	1025.1569	-1320.0247	270.49704	1029.5736	847.81549	184.06535	1196.3082	851.08398	222.87477	1194.2722	1088.7119	202.69553	-1428.2587	1082.7205	241.00853	-1432.4078	-1171.8802	1686.9557	-1581.7838	-1170.5775	1647.9779	-1581.5886	-1271.0443	1699.1104	1098.0939	-1271.574	1660.1333	1099.3246	953.06201	1705.3	1186.5842	972.77228	1733.424	1168.103	1026.4849	1669.2739	-1551.5485	1027.9856	1630.3053	-1551.9745	69.120605	199.76805	-938.95074	65.429039	238.57091	-937.64307
627	5.2166667	-1038.2428	214.45424	-1644.1624	-1109.3064	203.95947	-1599.3719	-1063.9257	172.62132	-1625.3246	-1054.1865	262.19815	-1634.9501	-1353.0432	235.17934	1003.8405	-1281.4926	227.08565	1052.402	-1322.9323	194.05078	1020.8937	-1284.5737	287.94034	1052.6979	813.99658	187.6319	1209.6649	892.40314	179.5079	1177.7235	844.32312	145.68417	1198.2816	860.66248	292.69791	1167.4388	1115.7454	209.79762	-1401.715	1056.1288	194.10497	-1460.2479	1095.0325	162.28488	-1423.9056	1069.8177	238.68756	-1425.8529	-1204.5123	1685.9569	-1563.2496	-1129.1445	1688.2917	-1606.1046	-1173.1342	1724.4369	-1581.9735	-1134.0253	1581.0255	-1603.8568	-1239.724	1699.318	1119.4753	-1309.3246	1698.7721	1071.8813	-1270.4999	1736.4281	1096.9034	-1245.6354	1592.8829	1110.6996	988.8158	1664.2318	1162.3013	957.10773	1700.5907	1183.7722	922.74854	1662.0928	1215.0094	939.80762	1659.3894	1159.8967	999.07294	1668.5162	-1579.417	1058.8416	1670.1571	-1518.6383	1024.9867	1708.0178	-1551.1283	1059.2472	1672.1415	-1585.4528	31.499077	196.39816	-944.43402	115.52188	203.94623	-932.31964	72.631889	161.23123	-939.82935	72.660248	200.62323	-971.17468	61.68869	198.77809	-891.9538																																														-1069.0614	209.90288	-1624.7378	-1074.3832	248.53331	-1624.1295	-1321.5945	231.6219	1025.1846	-1320.2158	270.34576	1029.6074	847.40381	184.17044	1196.0554	850.51062	222.98161	1193.8103	1088.6918	202.67644	-1428.2765	1082.6781	240.98631	-1432.4222	-1171.8779	1686.9679	-1581.8057	-1170.5713	1647.9902	-1581.6312	-1271.0115	1699.0726	1098.0804	-1271.5455	1660.0956	1099.3083	953.00928	1705.2902	1186.5472	972.70117	1733.4005	1168.0259	1026.478	1669.2686	-1551.5486	1027.9777	1630.2997	-1551.9714	69.052895	199.77176	-939.01953	65.447548	238.59619	-938.20374
628	5.225	-1038.2523	214.5694	-1644.2322	-1109.3241	203.92397	-1599.3616	-1063.8771	172.61798	-1625.3828	-1054.2001	262.25171	-1634.9791	-1352.9646	235.26662	1003.8058	-1281.4291	227.22592	1052.3256	-1322.8652	194.15187	1020.8151	-1284.5059	287.96609	1052.646	814.086	187.47333	1209.588	892.59583	179.29039	1178.6278	844.60925	145.41978	1198.3391	860.68292	292.60233	1167.4601	1115.7356	209.79726	-1401.7198	1056.168	194.13039	-1460.3142	1095.0715	162.40456	-1423.9142	1069.8535	238.63725	-1425.8104	-1204.5059	1685.9575	-1563.2415	-1129.1613	1688.2698	-1606.0352	-1173.1351	1724.4413	-1581.9753	-1134.0255	1581.0146	-1603.8381	-1239.734	1699.334	1119.4822	-1309.3293	1698.7833	1071.8856	-1270.474	1736.4033	1096.8911	-1245.696	1593.0452	1110.7456	988.85199	1664.2737	1162.2649	957.06708	1700.6123	1183.7354	922.64471	1662.0608	1214.9666	939.76416	1659.386	1159.9235	999.07373	1668.5308	-1579.4446	1058.8427	1670.1545	-1518.6475	1024.984	1708.0276	-1551.1262	1059.2393	1672.1447	-1585.4479	31.514637	196.42239	-944.48761	115.52416	203.93941	-932.32263	72.769714	161.77129	-940.23004	72.651016	200.64053	-971.19507	61.685574	198.78598	-891.95496																																														-1069.0813	209.95171	-1624.7686	-1074.465	248.57309	-1624.1329	-1321.554	231.73601	1025.1102	-1320.203	270.46054	1029.5358	847.81653	183.95764	1196.2865	851.04657	222.76865	1194.2194	1088.7513	202.70012	-1428.2632	1082.7422	241.01192	-1432.3979	-1171.8721	1686.9589	-1581.7765	-1170.5586	1647.9817	-1581.5698	-1271.0033	1699.0865	1098.0969	-1271.556	1660.1108	1099.3563	952.9256	1705.3469	1186.5328	972.61066	1733.4866	1168.0487	1026.4823	1669.2754	-1551.5642	1027.9891	1630.307	-1552.0046	69.19397	199.79385	-939.03143	65.544212	238.60342	-937.80804
629	5.2333333	-1038.2467	214.51772	-1644.191	-1109.304	203.97037	-1599.3585	-1063.7241	173.0829	-1625.6536	-1054.21	262.24405	-1634.9543	-1353.0203	235.0898	1003.813	-1281.424	227.17561	1052.4607	-1322.7144	194.22198	1020.7658	-1284.632	287.90894	1052.746	814.09998	187.60367	1209.589	892.83197	179.25273	1178.0103	844.49451	145.53914	1198.2045	860.69836	292.65332	1167.4373	1115.7328	209.78032	-1401.7058	1056.1708	194.14374	-1460.2931	1095.0645	162.39076	-1423.9062	1069.8634	238.66006	-1425.7931	-1204.5098	1685.9473	-1563.2393	-1129.1296	1688.2972	-1606.0618	-1173.1411	1724.4485	-1581.9781	-1134.0228	1581.025	-1603.8666	-1239.7314	1699.3284	1119.4813	-1309.1764	1698.5292	1071.7943	-1270.5797	1736.5737	1096.946	-1245.5105	1592.8013	1110.6964	988.89441	1664.2775	1162.288	957.15387	1700.5801	1183.7877	922.82849	1662.1445	1215.0784	939.7973	1659.4159	1159.9297	999.08545	1668.5239	-1579.4384	1058.8451	1670.1571	-1518.647	1024.988	1708.0225	-1551.1294	1059.2349	1672.1807	-1585.5673	31.573561	196.38864	-944.46539	115.51751	203.94623	-932.31964	72.636383	161.23897	-939.81268	72.645729	200.6375	-971.20081	61.646072	198.79039	-891.92755																																														-1068.7539	209.98936	-1624.9429	-1074.0195	248.62512	-1624.199	-1321.5782	231.61421	1025.1769	-1320.402	270.328	1029.7439	847.73328	184.03624	1196.0989	850.99799	222.84135	1193.9764	1088.7513	202.69698	-1428.2456	1082.7505	241.01111	-1432.3706	-1171.863	1686.965	-1581.7853	-1170.5341	1647.9882	-1581.5848	-1270.9165	1698.9695	1098.0668	-1271.2657	1659.9883	1099.2288	952.97583	1705.3586	1186.6176	972.60895	1733.5012	1168.083	1026.4878	1669.2727	-1551.5626	1027.9962	1630.3043	-1551.9984	69.056473	199.76329	-939.04199	65.448631	238.58827	-938.26532
630	5.2416667	-1038.2277	214.51337	-1644.1825	-1109.3157	204.00899	-1599.4209	-1063.9197	172.64853	-1625.3188	-1054.2369	262.23621	-1634.9541	-1352.9808	235.18826	1003.8035	-1281.4312	227.14299	1052.4431	-1322.8835	194.06725	1020.8248	-1284.6735	287.91116	1052.7672	814.08673	187.62062	1209.6077	892.46515	179.73068	1177.5344	844.52155	145.40697	1198.3328	860.69751	292.71136	1167.3459	1115.6855	209.52504	-1401.5706	1056.252	194.15144	-1460.3234	1095.0254	162.23511	-1423.8795	1069.829	238.69673	-1425.8384	-1204.5908	1686.0411	-1563.1036	-1129.1462	1688.3431	-1606.2609	-1173.1367	1724.4399	-1581.969	-1134.0167	1581.0168	-1603.8528	-1239.7413	1699.3304	1119.4789	-1309.3479	1698.7933	1071.8995	-1270.4801	1736.418	1096.8929	-1245.626	1592.9226	1110.693	988.85553	1664.2638	1162.2909	957.36566	1700.4296	1183.8179	922.69409	1662.0549	1215.0311	939.77826	1659.4183	1159.9091	999.07013	1668.5643	-1579.4762	1058.8484	1670.1603	-1518.6387	1024.9879	1708.0199	-1551.1237	1059.2487	1672.1412	-1585.4629	31.443085	196.6158	-944.60425	115.51694	203.9314	-932.30786	72.655617	161.26096	-939.83521	72.661102	200.63258	-971.20325	61.751301	198.46895	-892.16211																																														-1069.0782	209.95468	-1624.7568	-1074.4197	248.58278	-1624.1748	-1321.5916	231.65872	1025.142	-1320.2605	270.38147	1029.5892	847.45837	184.26128	1195.9517	850.3924	223.07793	1193.5729	1088.8057	202.57207	-1428.1425	1082.8945	240.90799	-1432.1938	-1171.9008	1687.0386	-1581.8036	-1170.6127	1648.0602	-1581.6312	-1271.0173	1699.089	1098.1002	-1271.5782	1660.1134	1099.3607	953.08167	1705.3496	1186.7463	972.83948	1733.4995	1168.3558	1026.4834	1669.296	-1551.5771	1027.9883	1630.3279	-1552.0336	69.183693	199.89975	-939.08435	65.694031	238.73598	-938.32977
631	5.25	-1038.3109	214.73589	-1644.2003	-1109.3094	203.98587	-1599.3607	-1063.8967	172.66266	-1625.3303	-1054.223	262.24963	-1634.9769	-1352.9442	235.32773	1003.8134	-1281.4379	227.16977	1052.4769	-1322.8802	194.09674	1020.8229	-1284.6971	287.89111	1052.8052	814.00702	187.66107	1209.642	892.83112	179.1711	1178.6211	844.32275	145.71431	1198.2382	860.77783	292.51501	1167.6528	1115.7283	209.7907	-1401.7037	1056.1627	194.13281	-1460.2959	1095.0266	162.25117	-1423.8807	1069.8525	238.68573	-1425.8414	-1204.5764	1686.0183	-1563.0994	-1129.1527	1688.347	-1606.2542	-1173.1477	1724.4329	-1581.9655	-1134.0317	1581.0176	-1603.8494	-1239.7314	1699.3181	1119.473	-1309.3231	1698.8158	1071.9054	-1270.5	1736.4312	1096.9058	-1245.5554	1592.8735	1110.71	988.83258	1664.2404	1162.297	957.44635	1700.3805	1183.8531	922.79633	1662.1237	1215.0753	939.74249	1659.3198	1159.9468	999.07361	1668.5216	-1579.4026	1058.8464	1670.1569	-1518.6404	1024.986	1708.022	-1551.1237	1059.2388	1672.1321	-1585.455	31.360664	196.63596	-944.4906	115.52292	203.97897	-932.3501	72.769257	161.76073	-940.22382	72.660065	200.63866	-971.22528	61.750744	198.22966	-892.35449																																														-1069.1689	210.06358	-1624.7115	-1074.6121	248.67661	-1624.0728	-1321.5496	231.74599	1025.179	-1320.1809	270.46368	1029.6587	847.71661	184.03026	1196.3756	851.15369	222.8327	1194.4895	1088.7172	202.69037	-1428.2732	1082.7395	241.00415	-1432.4349	-1171.8966	1687.0273	-1581.7975	-1170.5931	1648.0494	-1581.6224	-1271.0319	1699.0922	1098.0782	-1271.5872	1660.1154	1099.3022	953.14172	1705.3369	1186.8096	972.90155	1733.4756	1168.4039	1026.476	1669.2712	-1551.5466	1027.9745	1630.3024	-1551.972	69.264679	199.94301	-939.02283	65.70179	238.76073	-937.80194
